<svg width="18" height="22" viewBox="0 0 18 22" fill="none" xmlns="http://www.w3.org/2000/svg">
<path d="M17.5 18.2071V18.5H0.5V18.2071L2.35355 16.3536L2.5 16.2071V16V10C2.5 7.12118 4.35483 4.61559 7.14367 3.77894L7.1545 3.77569L7.16518 3.77196C7.27403 3.73386 7.49635 3.69035 7.81772 3.65668C8.12784 3.62419 8.4974 3.60402 8.88026 3.59999C9.66378 3.59174 10.433 3.65194 10.8563 3.77894L10.8563 3.77894C13.6452 4.61559 15.5 7.12118 15.5 10V16V16.2071L15.6464 16.3536L17.5 18.2071Z" stroke="white"/>
<path d="M10.4135 20.5C10.2061 21.0806 9.64884 21.5 9 21.5C8.35116 21.5 7.79395 21.0806 7.58648 20.5H10.4135Z" fill="black" stroke="white"/>
<path d="M9 1.40002C9.64884 1.40002 10.2061 1.8194 10.4135 2.40002L7.58648 2.40002C7.79395 1.8194 8.35116 1.40002 9 1.40002Z" fill="none" stroke="white"/>
</svg>
